<svg id="EN_FLAG" xmlns="http://www.w3.org/2000/svg" viewBox="0 0 410.08 74.06"><defs><style>.cls-1{fill:#f99b1c;}.cls-2{fill:#fff;}.cls-3{fill:#ed1c24;}.cls-4{fill:#1d3665;}</style></defs><title>Kartbutikken_Logo_EN_flag</title><g id="Layer_1" data-name="Layer 1"><path class="cls-1" d="M408.3,18a10.21,10.21,0,0,1-.6-4.2,8.65,8.65,0,0,1,.6-3.9,2.13,2.13,0,0,1,2.8-1,2,2,0,0,1,1,1,9.72,9.72,0,0,1,.5,3.8,15.53,15.53,0,0,1-.4,3.7,2.07,2.07,0,0,1-2.4,1.7,2.3,2.3,0,0,1-1.5-1.1m9.2,2.7a9.2,9.2,0,0,0,2.8-7,9,9,0,0,0-2.8-6.9,11.12,11.12,0,0,0-14.7,0,9.2,9.2,0,0,0-2.8,7,9.67,9.67,0,0,0,9.5,9.7h.5a10.32,10.32,0,0,0,7.5-2.8m-20.3-9.5a10.45,10.45,0,0,0-.6-4.3,3.9,3.9,0,0,0-2-2,7.73,7.73,0,0,0-3.4-.8,5.4,5.4,0,0,0-5.3,3V4.5h-6.7V23.2h7.2V11.9c0-1.9.7-2.8,2-2.8a1.5,1.5,0,0,1,1.1.4,3,3,0,0,1,.5,1.9V23.1h7.2ZM368.4,23.1h6.9V16.4h-6.9Z" transform="translate(-10.23 0.1)"/><path class="cls-2" d="M330.2,39.8h10.6l2.9-17.3c.5-3.1,1.9-4.6,4.2-4.6,1.7,0,2.5.8,2.5,2.4a8.33,8.33,0,0,1-.3,2.2l-2.9,17.3h10.9l3.3-19.7a15,15,0,0,0,.3-2.9,6.3,6.3,0,0,0-2.3-5.1,8.55,8.55,0,0,0-5.9-1.9,13.07,13.07,0,0,0-5.5,1.3,8.2,8.2,0,0,0-3.8,4.2L345,11H335ZM309.6,22a6.17,6.17,0,0,1,1.8-3.8,4.53,4.53,0,0,1,3.3-1.4,3.47,3.47,0,0,1,2.6,1.1,4.27,4.27,0,0,1,1,2.7c0,.5-.1.9-.1,1.4Zm19.2,2.3A13.73,13.73,0,0,0,325,14.2c-2.5-2.5-5.9-3.8-10.2-3.8a16.41,16.41,0,0,0-17,16.7c0,4.2,1.3,7.6,4,10a15.11,15.11,0,0,0,10.4,3.7,16.52,16.52,0,0,0,9.2-2.7,14.41,14.41,0,0,0,6-6.9l-9.6-1.6c-1,2.4-2.6,3.6-4.9,3.6a4.14,4.14,0,0,1-3-1.1,3.85,3.85,0,0,1-1.2-3c0-.6.1-1.2.1-1.8h19.7a18.41,18.41,0,0,0,.3-3.3M289.6,11l-8.4,7.7c-.4.4-1,.9-1.6,1.6l-2.1,2.1L281.1.8H271l-6.4,39h10l1.3-7.9,4.9-4.5,3.9,12.3h10.8l-6.9-18.9c1.1-1.1,3-3,5.8-5.5l5-4.5Zm-33.3,0-8.4,7.7c-.4.4-1,.9-1.6,1.6l-2.1,2.1L247.8.8H237.7l-6.4,39h10.1l1.3-7.9,4.9-4.5,3.9,12.3h10.8l-6.9-18.9c1.1-1.1,3-3,5.8-5.5l5-4.5Zm-37.1,0-4.8,28.8h11.1L230.3,11ZM221-.1l-1.4,8.5h11.1l1.4-8.5ZM209.5,11,211,2.2l-10.4.2L199,11h-3.9l-1.2,7.4h3.9l-1.7,10.3a30.06,30.06,0,0,0-.5,4.2,7.3,7.3,0,0,0,1.1,4.3,7.19,7.19,0,0,0,2.7,2.5,11.25,11.25,0,0,0,5.1.9,23.79,23.79,0,0,0,5.9-.7l1.2-7.5a12.41,12.41,0,0,1-2.7.3q-2.7,0-2.7-2.1a6.28,6.28,0,0,1,.3-1.9l1.7-10.3h5.2l1.2-7.4Zm-28.2,0-2.4,14.3c-.8,4.8-2.4,7.2-4.9,7.2a1.83,1.83,0,0,1-2-2.1,27,27,0,0,1,.4-2.8l2.8-16.5H164.3l-3,18a36.21,36.21,0,0,0-.6,4.6,6.35,6.35,0,0,0,2.1,4.9,8,8,0,0,0,5.7,2c4.1,0,7.2-2.1,9.5-6.2l-.9,5.4h10.2L192.1,11ZM140,21.5c.8-2.9,2.2-4.4,4.1-4.4s3,1.4,3,4.3a27.43,27.43,0,0,1-.9,7c-.6,2.2-1.3,3.6-2,4.2a3.74,3.74,0,0,1-2.5,1,3.08,3.08,0,0,1-1.9-.6,3.46,3.46,0,0,1-1-1.1,5.5,5.5,0,0,1-.2-2.2ZM132.4.8l-6.4,39h5l3.2-4.8c1.7,3.7,4.8,5.5,9.2,5.5a12.64,12.64,0,0,0,10.9-5.8,21.94,21.94,0,0,0,3.9-12.8c0-3.9-.8-6.8-2.5-8.7a8.1,8.1,0,0,0-6.6-3,8.6,8.6,0,0,0-3.9.9,13.48,13.48,0,0,0-4,3.5L143.4.9h-11ZM121.1,11l1.5-8.7-10.4.2L110.6,11h-3.9l-1.2,7.4h3.9l-1.7,10.3a30.06,30.06,0,0,0-.5,4.2,7.3,7.3,0,0,0,1.1,4.3,6.78,6.78,0,0,0,2.8,2.5,11.44,11.44,0,0,0,5.2.9,22.47,22.47,0,0,0,5.8-.7l1.2-7.5a12.41,12.41,0,0,1-2.7.3q-2.7,0-2.7-2.1a6.28,6.28,0,0,1,.3-1.9l1.7-10.3H125l1.2-7.3h-5.1ZM81.4,39.8H92.3L94.2,28c.5-2.8,1.2-4.8,2.4-5.9a7.22,7.22,0,0,1,5.2-1.7,16.67,16.67,0,0,1,1.9.1L105,10.3a5.7,5.7,0,0,0-1.3-.1c-4.1,0-7.1,2.6-9.1,7.8l1.2-7H86.3ZM64.6,32.1a5,5,0,0,1-3.2,1.5,2.16,2.16,0,0,1-2.5-1.8v-.6c0-3,2.6-4.6,7.8-5-.3,2.9-1,4.9-2.1,5.9m11.9,5.2a36,36,0,0,1,.8-5.6c1.3-7.5,2-11.9,2-13.1a6.86,6.86,0,0,0-3.5-6.3q-3.45-2.1-9.6-2.1c-8,0-13.2,2.7-15.5,8L60,20.1a4.74,4.74,0,0,1,4.7-3.2q3.3,0,3.3,2.4a10.1,10.1,0,0,1-.3,1.7c-5,.5-8.4.8-10.2,1.1a18,18,0,0,0-5.1,1.7,9.18,9.18,0,0,0-3.8,3.5,8.41,8.41,0,0,0-1.3,4.9,7.79,7.79,0,0,0,2.5,5.9,9.46,9.46,0,0,0,6.6,2.4,10.4,10.4,0,0,0,9.3-5.4c-.1,1.1-.2,2.3-.2,3.4a5.7,5.7,0,0,0,.1,1.3H76.8a5.55,5.55,0,0,1-.3-2.5M51.3.8h-11L34.8,7.1q-4.2,5.1-6,7.2A18.28,18.28,0,0,0,26,18.7L29,.8H18.2l-6.4,39H22.6l1.6-9.5L30,23.7l4.4,16.1H45.8L38.4,15.6Z" transform="translate(-10.23 0.1)"/></g><path class="cls-2" d="M15.31,53.38l3.84,11.29h0l3.63-11.29h5.08V69.8H24.53V58.16h0l-4,11.64H17.68l-4-11.52h0V69.8H10.23V53.38Z" transform="translate(-10.23 0.1)"/><path class="cls-2" d="M30.84,61.57a3.79,3.79,0,0,1,.58-1.91,3.91,3.91,0,0,1,1.29-1.22,5.63,5.63,0,0,1,1.76-.66,10,10,0,0,1,2-.2,13.38,13.38,0,0,1,1.82.13,5.55,5.55,0,0,1,1.68.49,3.31,3.31,0,0,1,1.24,1A2.86,2.86,0,0,1,41.65,61v6.19a12.39,12.39,0,0,0,.09,1.54,2.77,2.77,0,0,0,.32,1.1H38.75a4.55,4.55,0,0,1-.15-.56,4.81,4.81,0,0,1-.08-.59,4.27,4.27,0,0,1-1.84,1.13,7.41,7.41,0,0,1-2.16.32,5.82,5.82,0,0,1-1.59-.21,3.63,3.63,0,0,1-1.29-.64,3,3,0,0,1-.86-1.1,3.74,3.74,0,0,1-.31-1.59,3.46,3.46,0,0,1,.36-1.67,3,3,0,0,1,.92-1A4.11,4.11,0,0,1,33,63.26a13.74,13.74,0,0,1,1.46-.31q.74-.12,1.45-.18a8.61,8.61,0,0,0,1.27-.21,2.2,2.2,0,0,0,.87-.4.88.88,0,0,0,.3-.77,1.73,1.73,0,0,0-.17-.84,1.27,1.27,0,0,0-.46-.48,1.82,1.82,0,0,0-.67-.23,5.5,5.5,0,0,0-.82-.06,2.48,2.48,0,0,0-1.52.41,1.84,1.84,0,0,0-.64,1.38ZM38.38,64a1.48,1.48,0,0,1-.52.29,5.21,5.21,0,0,1-.67.17l-.75.11-.78.12a5.79,5.79,0,0,0-.72.18,2.12,2.12,0,0,0-.62.31,1.47,1.47,0,0,0-.43.49,1.59,1.59,0,0,0-.16.76,1.53,1.53,0,0,0,.16.74,1.23,1.23,0,0,0,.44.47,1.86,1.86,0,0,0,.64.24,4.11,4.11,0,0,0,.76.07,2.89,2.89,0,0,0,1.5-.32,2.15,2.15,0,0,0,.78-.77,2.45,2.45,0,0,0,.31-.91,6.31,6.31,0,0,0,.06-.74Z" transform="translate(-10.23 0.1)"/><path class="cls-2" d="M47.51,57.91v1.52h0A3.59,3.59,0,0,1,49.07,58a4.66,4.66,0,0,1,2-.44,5.15,5.15,0,0,1,2.42.53,5,5,0,0,1,1.68,1.4,5.92,5.92,0,0,1,1,2A9.05,9.05,0,0,1,56.5,64a8.19,8.19,0,0,1-.32,2.3,5.87,5.87,0,0,1-1,2,4.84,4.84,0,0,1-1.63,1.36,4.92,4.92,0,0,1-2.29.51,4.63,4.63,0,0,1-2-.45,3.85,3.85,0,0,1-1.53-1.32h0V74H44.41V57.91Zm4.24,9.43a2.62,2.62,0,0,0,.87-.84,3.47,3.47,0,0,0,.47-1.21,7.15,7.15,0,0,0,.14-1.4,6.61,6.61,0,0,0-.15-1.4,3.73,3.73,0,0,0-.49-1.23,2.75,2.75,0,0,0-.89-.87A2.47,2.47,0,0,0,50.39,60a2.52,2.52,0,0,0-1.35.33,2.68,2.68,0,0,0-.87.86,3.59,3.59,0,0,0-.47,1.22,7.27,7.27,0,0,0-.14,1.43,6.58,6.58,0,0,0,.15,1.4,3.64,3.64,0,0,0,.48,1.21,2.79,2.79,0,0,0,3.56.84Z" transform="translate(-10.23 0.1)"/><path class="cls-2" d="M61.44,66.85a1.91,1.91,0,0,0,.56.62,2.42,2.42,0,0,0,.79.36,3.71,3.71,0,0,0,.93.12,3.49,3.49,0,0,0,.72-.08,2.46,2.46,0,0,0,.69-.25,1.56,1.56,0,0,0,.52-.46,1.21,1.21,0,0,0,.21-.72q0-.74-1-1.1a19.53,19.53,0,0,0-2.73-.74q-.71-.16-1.39-.38a4.75,4.75,0,0,1-1.21-.57,2.8,2.8,0,0,1-.85-.9,2.54,2.54,0,0,1-.32-1.32,3.57,3.57,0,0,1,.45-1.89A3.3,3.3,0,0,1,60,58.36a5.2,5.2,0,0,1,1.66-.6,10.19,10.19,0,0,1,1.89-.17,9.39,9.39,0,0,1,1.87.18,5,5,0,0,1,1.62.62,3.73,3.73,0,0,1,1.18,1.16,3.9,3.9,0,0,1,.56,1.83H65.7A1.43,1.43,0,0,0,65,60.11a3.27,3.27,0,0,0-1.52-.33,5.51,5.51,0,0,0-.6,0,2,2,0,0,0-.59.15,1.21,1.21,0,0,0-.45.33.88.88,0,0,0-.18.59.89.89,0,0,0,.32.71,2.46,2.46,0,0,0,.84.45,10.35,10.35,0,0,0,1.18.31l1.36.3a13.86,13.86,0,0,1,1.39.39,4.59,4.59,0,0,1,1.21.61,3,3,0,0,1,.85.94A2.77,2.77,0,0,1,69.13,66a3.61,3.61,0,0,1-1.7,3.24,5,5,0,0,1-1.74.68,10.16,10.16,0,0,1-2,.2,9.81,9.81,0,0,1-2-.21,5.33,5.33,0,0,1-1.76-.69,4,4,0,0,1-1.27-1.28,4,4,0,0,1-.54-2h3.1A1.79,1.79,0,0,0,61.44,66.85Z" transform="translate(-10.23 0.1)"/><path class="cls-2" d="M78,61.28A5.44,5.44,0,0,1,81.14,58a6.8,6.8,0,0,1,2.53-.45,6.89,6.89,0,0,1,2.54.45,5.42,5.42,0,0,1,3.19,3.24,7.31,7.31,0,0,1,.44,2.59,7.21,7.21,0,0,1-.44,2.58,5.59,5.59,0,0,1-1.24,2,5.41,5.41,0,0,1-1.94,1.25,7.05,7.05,0,0,1-2.54.44,7,7,0,0,1-2.53-.44,5.41,5.41,0,0,1-1.93-1.25,5.57,5.57,0,0,1-1.24-2,7.2,7.2,0,0,1-.44-2.58A7.3,7.3,0,0,1,78,61.28Zm3,4a3.71,3.71,0,0,0,.47,1.22,2.51,2.51,0,0,0,.89.86,2.7,2.7,0,0,0,1.38.32,2.77,2.77,0,0,0,1.39-.32,2.49,2.49,0,0,0,.9-.86,3.72,3.72,0,0,0,.47-1.22,6.94,6.94,0,0,0,.14-1.39,7.12,7.12,0,0,0-.14-1.4A3.59,3.59,0,0,0,86,61.25a2.61,2.61,0,0,0-.9-.86A2.69,2.69,0,0,0,83.67,60a2.51,2.51,0,0,0-2.27,1.2,3.58,3.58,0,0,0-.47,1.22,7.15,7.15,0,0,0-.14,1.4A7,7,0,0,0,80.93,65.26Z" transform="translate(-10.23 0.1)"/><path class="cls-2" d="M90.93,60.1V57.91h2V57a3.57,3.57,0,0,1,1-2.6,4,4,0,0,1,3-1q.44,0,.87,0l.85.06v2.44a10.07,10.07,0,0,0-1.2-.07,1.25,1.25,0,0,0-1,.31,1.52,1.52,0,0,0-.29,1v.71h2.25V60.1H96.15V69.8H92.89V60.1Z" transform="translate(-10.23 0.1)"/><path class="cls-2" d="M110.62,53.38l6.85,11h0v-11h3.38V69.8h-3.61l-6.83-11h0v11H107V53.38Z" transform="translate(-10.23 0.1)"/><path class="cls-2" d="M124,61.28A5.44,5.44,0,0,1,127.2,58a6.8,6.8,0,0,1,2.53-.45,6.89,6.89,0,0,1,2.54.45,5.42,5.42,0,0,1,3.19,3.24,7.31,7.31,0,0,1,.44,2.59,7.21,7.21,0,0,1-.44,2.58,5.59,5.59,0,0,1-1.24,2,5.41,5.41,0,0,1-1.94,1.25,7.05,7.05,0,0,1-2.54.44,7,7,0,0,1-2.53-.44,5.41,5.41,0,0,1-1.93-1.25,5.57,5.57,0,0,1-1.24-2,7.2,7.2,0,0,1-.44-2.58A7.3,7.3,0,0,1,124,61.28Zm3,4a3.71,3.71,0,0,0,.47,1.22,2.51,2.51,0,0,0,.89.86,2.7,2.7,0,0,0,1.38.32,2.77,2.77,0,0,0,1.39-.32,2.49,2.49,0,0,0,.9-.86,3.72,3.72,0,0,0,.47-1.22,6.94,6.94,0,0,0,.14-1.39,7.12,7.12,0,0,0-.14-1.4,3.59,3.59,0,0,0-.47-1.22,2.61,2.61,0,0,0-.9-.86,2.69,2.69,0,0,0-1.39-.33,2.51,2.51,0,0,0-2.27,1.2,3.58,3.58,0,0,0-.47,1.22,7.15,7.15,0,0,0-.14,1.4A7,7,0,0,0,127,65.26Z" transform="translate(-10.23 0.1)"/><path class="cls-2" d="M141.35,57.91v2.21h0a4,4,0,0,1,.62-1,4.07,4.07,0,0,1,.9-.81,4.37,4.37,0,0,1,1.08-.52,3.89,3.89,0,0,1,1.2-.18,2.57,2.57,0,0,1,.71.12v3l-.55-.08a6,6,0,0,0-.62,0,3.48,3.48,0,0,0-1.52.3,2.63,2.63,0,0,0-1,.82,3.28,3.28,0,0,0-.54,1.21,6.57,6.57,0,0,0-.16,1.5V69.8h-3.27V57.91Z" transform="translate(-10.23 0.1)"/><path class="cls-2" d="M157.66,69.8l-2.12-8h0l-2,8h-3.38l-3.77-11.89h3.45L152,66h0l2-8.07h3.17l2,8h0l2.19-8h3.36L161,69.8Z" transform="translate(-10.23 0.1)"/><path class="cls-2" d="M166.23,61.57a3.79,3.79,0,0,1,.58-1.91,3.91,3.91,0,0,1,1.29-1.22,5.63,5.63,0,0,1,1.76-.66,10,10,0,0,1,2-.2,13.38,13.38,0,0,1,1.82.13,5.55,5.55,0,0,1,1.68.49,3.31,3.31,0,0,1,1.24,1A2.86,2.86,0,0,1,177,61v6.19a12.39,12.39,0,0,0,.09,1.54,2.77,2.77,0,0,0,.32,1.1h-3.31a4.55,4.55,0,0,1-.15-.56,4.81,4.81,0,0,1-.08-.59,4.27,4.27,0,0,1-1.84,1.13,7.41,7.41,0,0,1-2.16.32,5.82,5.82,0,0,1-1.59-.21,3.63,3.63,0,0,1-1.29-.64,3,3,0,0,1-.86-1.1,3.74,3.74,0,0,1-.31-1.59,3.46,3.46,0,0,1,.36-1.67,3,3,0,0,1,.92-1,4.11,4.11,0,0,1,1.29-.59,13.74,13.74,0,0,1,1.46-.31q.74-.12,1.45-.18a8.61,8.61,0,0,0,1.27-.21,2.2,2.2,0,0,0,.87-.4.88.88,0,0,0,.3-.77,1.73,1.73,0,0,0-.17-.84,1.27,1.27,0,0,0-.46-.48,1.82,1.82,0,0,0-.67-.23,5.5,5.5,0,0,0-.82-.06,2.48,2.48,0,0,0-1.52.41,1.84,1.84,0,0,0-.64,1.38ZM173.78,64a1.48,1.48,0,0,1-.52.29,5.21,5.21,0,0,1-.67.17l-.75.11-.78.12a5.79,5.79,0,0,0-.72.18,2.12,2.12,0,0,0-.62.31,1.47,1.47,0,0,0-.43.49,1.59,1.59,0,0,0-.16.76,1.53,1.53,0,0,0,.16.74,1.23,1.23,0,0,0,.44.47,1.86,1.86,0,0,0,.64.24,4.11,4.11,0,0,0,.76.07,2.89,2.89,0,0,0,1.5-.32,2.15,2.15,0,0,0,.78-.77,2.45,2.45,0,0,0,.31-.91,6.31,6.31,0,0,0,.06-.74Z" transform="translate(-10.23 0.1)"/><path class="cls-2" d="M184.2,73.34a4.74,4.74,0,0,1-2.62.62q-.51,0-1,0l-1-.08V71.16l.94.09a6.94,6.94,0,0,0,1,0,1.27,1.27,0,0,0,1-.51,1.63,1.63,0,0,0,.31-1,2,2,0,0,0-.14-.74l-4.16-11.16h3.47l2.69,8.14h0l2.6-8.14h3.38l-5,13.36A4,4,0,0,1,184.2,73.34Z" transform="translate(-10.23 0.1)"/><g id="Layer_2" data-name="Layer 2"><rect class="cls-3" x="193.21" y="52.12" width="95.17" height="17.18"/><rect class="cls-2" x="223.62" y="52.12" width="34.7" height="17.18"/><rect class="cls-4" x="232.72" y="52.12" width="16.66" height="17.18"/></g></svg>